<svg width="482" height="83" viewBox="0 0 482 83" fill="none" xmlns="http://www.w3.org/2000/svg">
<path d="M4 57.568C5.632 55.12 6.976 52.84 8.032 50.728C9.136 48.616 10.192 46.168 11.2 43.384C14.608 45.352 18.568 46.888 23.08 47.992C27.592 49.096 31.792 49.648 35.68 49.648C39.664 49.648 42.472 49.312 44.104 48.64C45.736 47.92 46.552 47.152 46.552 46.336C46.552 43.408 42.088 41.944 33.16 41.944C23.368 41.944 16.264 40.936 11.848 38.92C7.432 36.856 5.224 33.544 5.224 28.984C5.224 22.504 7.912 17.728 13.288 14.656C18.664 11.584 25.648 10.048 34.24 10.048C39.232 10.048 44.344 10.696 49.576 11.992C54.856 13.24 59.608 14.968 63.832 17.176C62.44 20.344 60.976 24.208 59.44 28.768C59.152 29.728 58.912 30.448 58.72 30.928C56.272 28.96 52.576 27.328 47.632 26.032C42.688 24.688 38.32 24.016 34.528 24.016C29.968 24.016 26.896 24.328 25.312 24.952C23.728 25.528 22.936 26.392 22.936 27.544C22.936 28.696 24.016 29.632 26.176 30.352C28.384 31.024 31.552 31.36 35.68 31.36C45.856 31.36 53.248 32.536 57.856 34.888C62.464 37.192 64.768 40.744 64.768 45.544C64.768 52.264 62.32 57.112 57.424 60.088C52.528 63.016 45.112 64.48 35.176 64.48C29.848 64.48 24.424 63.904 18.904 62.752C13.384 61.552 8.416 59.824 4 57.568Z" fill="#4F46E5"/>
<path d="M80.1636 20.2C77.1396 20.2 74.8836 19.456 73.3956 17.968C71.9556 16.48 71.2356 14.536 71.2356 12.136C71.2356 9.784 71.9556 7.84 73.3956 6.304C74.8836 4.768 77.1396 4 80.1636 4C83.0436 4 85.2516 4.792 86.7876 6.376C88.3236 7.912 89.0916 9.832 89.0916 12.136C89.0916 14.536 88.3476 16.48 86.8596 17.968C85.3716 19.456 83.1396 20.2 80.1636 20.2ZM71.8116 63.76C72.1476 56.032 72.3156 49.648 72.3156 44.608C72.3156 38.608 72.1236 31.888 71.7396 24.448H89.0196C88.6356 31.6 88.4436 38.32 88.4436 44.608C88.4436 49.888 88.6116 56.272 88.9476 63.76H71.8116Z" fill="#4F46E5"/>
<path d="M123.627 63.76C123.915 56.704 124.059 50.2 124.059 44.248C124.059 42.136 123.531 40.456 122.475 39.208C121.467 37.96 120.171 37.336 118.587 37.336C117.003 37.336 115.659 38.056 114.555 39.496C113.451 40.888 112.803 42.808 112.611 45.256C112.515 48.904 112.467 51.496 112.467 53.032C112.467 56.296 112.563 59.872 112.755 63.76H95.5469C95.9309 56.848 96.1229 50.32 96.1229 44.176C96.1229 38.032 95.9309 31.456 95.5469 24.448C98.7149 24.592 101.139 24.664 102.819 24.664C104.595 24.664 107.019 24.592 110.091 24.448L112.179 35.032C113.283 31.192 115.011 28.36 117.363 26.536C119.715 24.664 122.451 23.728 125.571 23.728C128.451 23.728 130.947 24.376 133.059 25.672C135.171 26.92 136.755 28.624 137.811 30.784C138.915 32.944 139.467 35.368 139.467 38.056V48.424C139.467 54.808 139.587 59.92 139.827 63.76H123.627Z" fill="#4F46E5"/>
<path d="M179.593 24.448H193.417C193.177 32.32 193.057 43.504 193.057 58C193.057 63.712 191.905 68.392 189.601 72.04C187.345 75.688 184.345 78.328 180.601 79.96C176.857 81.64 172.681 82.48 168.073 82.48C163.513 82.48 159.433 81.808 155.833 80.464C152.233 79.168 149.497 77.416 147.625 75.208L150.865 64.192C153.457 65.68 155.905 66.736 158.209 67.36C160.513 68.032 162.913 68.368 165.409 68.368C173.569 68.368 177.649 64.912 177.649 58C177.649 56.992 177.673 56.272 177.721 55.84C177.721 55.552 177.721 55.168 177.721 54.688C177.769 54.208 177.769 53.584 177.721 52.816C175.273 59.632 170.089 63.04 162.169 63.04C158.953 63.04 156.073 62.176 153.529 60.448C151.033 58.72 149.089 56.392 147.697 53.464C146.305 50.488 145.609 47.224 145.609 43.672C145.609 40.024 146.305 36.688 147.697 33.664C149.089 30.592 151.033 28.168 153.529 26.392C156.025 24.616 158.833 23.728 161.953 23.728C170.065 23.728 175.345 26.584 177.793 32.296L179.593 24.448ZM169.657 51.52C170.761 51.52 171.913 51.28 173.113 50.8C174.313 50.272 175.345 49.456 176.209 48.352C177.073 47.2 177.505 45.784 177.505 44.104C177.505 41.128 176.833 39.016 175.489 37.768C174.145 36.472 172.153 35.824 169.513 35.824C167.209 35.824 165.385 36.592 164.041 38.128C162.697 39.664 162.025 41.656 162.025 44.104C162.025 46.312 162.745 48.112 164.185 49.504C165.673 50.848 167.497 51.52 169.657 51.52Z" fill="#4F46E5"/>
<path d="M216.107 34.96C216.059 37.84 216.035 42.256 216.035 48.208C216.035 55.36 216.084 60.544 216.18 63.76H199.188L199.259 55.624C199.355 46.696 199.403 39.808 199.403 34.96C199.403 30.352 199.355 23.824 199.259 15.376L199.188 7.6H216.18C216.084 14.416 216.035 19.984 216.035 24.304C216.035 29.104 216.059 32.656 216.107 34.96Z" fill="#4F46E5"/>
<path d="M260.057 45.76H236.585C236.969 47.872 237.905 49.6 239.393 50.944C240.929 52.24 243.089 52.888 245.873 52.888C247.889 52.888 249.785 52.504 251.561 51.736C253.337 50.92 254.753 49.792 255.809 48.352C259.025 49.936 263.297 51.64 268.625 53.464C267.137 56.824 264.425 59.512 260.489 61.528C256.601 63.496 251.513 64.48 245.225 64.48C237.065 64.48 231.017 62.608 227.081 58.864C223.193 55.072 221.249 50.104 221.249 43.96C221.249 37.96 223.193 33.088 227.081 29.344C230.969 25.6 237.017 23.728 245.225 23.728C250.121 23.728 254.369 24.544 257.969 26.176C261.569 27.808 264.329 30.088 266.249 33.016C268.169 35.896 269.129 39.208 269.129 42.952C269.129 44.2 269.081 45.136 268.985 45.76H260.057ZM246.233 34.6C243.833 34.6 241.865 35.056 240.329 35.968C238.793 36.88 237.713 38.128 237.089 39.712H254.081C253.505 38.176 252.569 36.952 251.273 36.04C249.977 35.08 248.297 34.6 246.233 34.6Z" fill="#4F46E5"/>
<path d="M305.605 23.728C308.725 23.728 311.533 24.616 314.029 26.392C316.525 28.168 318.469 30.592 319.861 33.664C321.253 36.688 321.949 40.024 321.949 43.672C321.949 47.272 321.253 50.68 319.861 53.896C318.469 57.064 316.501 59.632 313.957 61.6C311.461 63.52 308.605 64.48 305.389 64.48C301.645 64.48 298.429 63.712 295.741 62.176C293.101 60.592 291.133 58.168 289.837 54.904C289.837 57.64 289.933 62.032 290.125 68.08C290.317 73.936 290.413 78.064 290.413 80.464H274.141C274.429 71.536 274.573 62.2 274.573 52.456C274.573 42.712 274.429 33.376 274.141 24.448H287.965L290.053 33.448C291.397 30.088 293.413 27.64 296.101 26.104C298.789 24.52 301.957 23.728 305.605 23.728ZM297.901 51.52C300.061 51.52 301.861 50.848 303.301 49.504C304.789 48.112 305.533 46.312 305.533 44.104C305.533 41.656 304.861 39.664 303.517 38.128C302.173 36.592 300.349 35.824 298.045 35.824C295.405 35.824 293.413 36.472 292.069 37.768C290.725 39.016 290.053 41.128 290.053 44.104C290.053 45.784 290.485 47.2 291.349 48.352C292.213 49.456 293.245 50.272 294.445 50.8C295.645 51.28 296.797 51.52 297.901 51.52Z" fill="#4F46E5"/>
<path d="M373.168 51.808C373.168 53.44 373.36 54.592 373.744 55.264C374.128 55.936 374.896 56.416 376.048 56.704L375.76 63.472C374.224 63.712 372.88 63.88 371.728 63.976C370.624 64.072 369.136 64.12 367.264 64.12C363.136 64.12 360.4 63.208 359.056 61.384C357.712 59.512 357.04 57.136 357.04 54.256V52.456C355.648 56.392 353.608 59.32 350.92 61.24C348.28 63.16 344.896 64.12 340.768 64.12C335.968 64.12 332.344 63.16 329.896 61.24C327.496 59.32 326.296 56.464 326.296 52.672C326.296 49.552 327.328 47.104 329.392 45.328C331.456 43.552 334.648 42.328 338.968 41.656C335.32 39.064 331.672 36.808 328.024 34.888C330.904 31.24 334.192 28.48 337.888 26.608C341.584 24.688 346.072 23.728 351.352 23.728C358.744 23.728 364.216 25.336 367.768 28.552C371.368 31.72 373.168 36.616 373.168 43.24V51.808ZM352.864 36.4C350.416 36.4 348.256 36.808 346.384 37.624C344.512 38.44 342.832 39.664 341.344 41.296C344.224 40.96 347.824 40.792 352.144 40.792C353.92 40.792 355.168 40.576 355.888 40.144C356.608 39.712 356.968 39.16 356.968 38.488C356.968 37.912 356.608 37.432 355.888 37.048C355.168 36.616 354.16 36.4 352.864 36.4ZM345.304 52.384C347.992 52.384 350.416 51.88 352.576 50.872C354.736 49.816 356.224 48.448 357.04 46.768V44.896C355.888 45.472 354.616 45.928 353.224 46.264C351.832 46.552 350.152 46.84 348.184 47.128L345.592 47.56C342.904 48.088 341.56 49 341.56 50.296C341.56 51.688 342.808 52.384 345.304 52.384Z" fill="#4F46E5"/>
<path d="M414.367 24.448H428.191C427.951 32.32 427.831 43.504 427.831 58C427.831 63.712 426.679 68.392 424.375 72.04C422.119 75.688 419.119 78.328 415.375 79.96C411.631 81.64 407.455 82.48 402.847 82.48C398.287 82.48 394.207 81.808 390.607 80.464C387.007 79.168 384.271 77.416 382.399 75.208L385.639 64.192C388.231 65.68 390.679 66.736 392.983 67.36C395.287 68.032 397.687 68.368 400.183 68.368C408.343 68.368 412.423 64.912 412.423 58C412.423 56.992 412.447 56.272 412.495 55.84C412.495 55.552 412.495 55.168 412.495 54.688C412.543 54.208 412.543 53.584 412.495 52.816C410.047 59.632 404.863 63.04 396.943 63.04C393.727 63.04 390.847 62.176 388.303 60.448C385.807 58.72 383.863 56.392 382.471 53.464C381.079 50.488 380.383 47.224 380.383 43.672C380.383 40.024 381.079 36.688 382.471 33.664C383.863 30.592 385.807 28.168 388.303 26.392C390.799 24.616 393.607 23.728 396.727 23.728C404.839 23.728 410.119 26.584 412.567 32.296L414.367 24.448ZM404.431 51.52C405.535 51.52 406.687 51.28 407.887 50.8C409.087 50.272 410.119 49.456 410.983 48.352C411.847 47.2 412.279 45.784 412.279 44.104C412.279 41.128 411.607 39.016 410.263 37.768C408.919 36.472 406.927 35.824 404.287 35.824C401.983 35.824 400.159 36.592 398.815 38.128C397.471 39.664 396.799 41.656 396.799 44.104C396.799 46.312 397.519 48.112 398.959 49.504C400.447 50.848 402.271 51.52 404.431 51.52Z" fill="#4F46E5"/>
<path d="M472.049 45.76H448.577C448.961 47.872 449.897 49.6 451.385 50.944C452.921 52.24 455.081 52.888 457.865 52.888C459.881 52.888 461.777 52.504 463.553 51.736C465.329 50.92 466.745 49.792 467.801 48.352C471.017 49.936 475.289 51.64 480.617 53.464C479.129 56.824 476.417 59.512 472.481 61.528C468.593 63.496 463.505 64.48 457.217 64.48C449.057 64.48 443.009 62.608 439.073 58.864C435.185 55.072 433.241 50.104 433.241 43.96C433.241 37.96 435.185 33.088 439.073 29.344C442.961 25.6 449.009 23.728 457.217 23.728C462.113 23.728 466.361 24.544 469.961 26.176C473.561 27.808 476.321 30.088 478.241 33.016C480.161 35.896 481.121 39.208 481.121 42.952C481.121 44.2 481.073 45.136 480.977 45.76H472.049ZM458.225 34.6C455.825 34.6 453.857 35.056 452.321 35.968C450.785 36.88 449.705 38.128 449.081 39.712H466.073C465.497 38.176 464.561 36.952 463.265 36.04C461.969 35.08 460.289 34.6 458.225 34.6Z" fill="#4F46E5"/>
<path d="M0 53.568C1.632 51.12 2.976 48.84 4.032 46.728C5.136 44.616 6.192 42.168 7.2 39.384C10.608 41.352 14.568 42.888 19.08 43.992C23.592 45.096 27.792 45.648 31.68 45.648C35.664 45.648 38.472 45.312 40.104 44.64C41.736 43.92 42.552 43.152 42.552 42.336C42.552 39.408 38.088 37.944 29.16 37.944C19.368 37.944 12.264 36.936 7.848 34.92C3.432 32.856 1.224 29.544 1.224 24.984C1.224 18.504 3.912 13.728 9.288 10.656C14.664 7.584 21.648 6.048 30.24 6.048C35.232 6.048 40.344 6.696 45.576 7.992C50.856 9.24 55.608 10.968 59.832 13.176C58.44 16.344 56.976 20.208 55.44 24.768C55.152 25.728 54.912 26.448 54.72 26.928C52.272 24.96 48.576 23.328 43.632 22.032C38.688 20.688 34.32 20.016 30.528 20.016C25.968 20.016 22.896 20.328 21.312 20.952C19.728 21.528 18.936 22.392 18.936 23.544C18.936 24.696 20.016 25.632 22.176 26.352C24.384 27.024 27.552 27.36 31.68 27.36C41.856 27.36 49.248 28.536 53.856 30.888C58.464 33.192 60.768 36.744 60.768 41.544C60.768 48.264 58.32 53.112 53.424 56.088C48.528 59.016 41.112 60.48 31.176 60.48C25.848 60.48 20.424 59.904 14.904 58.752C9.384 57.552 4.416 55.824 0 53.568Z" fill="white"/>
<path d="M76.1636 16.2C73.1396 16.2 70.8836 15.456 69.3956 13.968C67.9556 12.48 67.2356 10.536 67.2356 8.136C67.2356 5.784 67.9556 3.84 69.3956 2.304C70.8836 0.767999 73.1396 0 76.1636 0C79.0436 0 81.2516 0.792 82.7876 2.376C84.3236 3.912 85.0916 5.832 85.0916 8.136C85.0916 10.536 84.3476 12.48 82.8596 13.968C81.3716 15.456 79.1396 16.2 76.1636 16.2ZM67.8116 59.76C68.1476 52.032 68.3156 45.648 68.3156 40.608C68.3156 34.608 68.1236 27.888 67.7396 20.448H85.0196C84.6356 27.6 84.4436 34.32 84.4436 40.608C84.4436 45.888 84.6116 52.272 84.9476 59.76H67.8116Z" fill="white"/>
<path d="M119.627 59.76C119.915 52.704 120.059 46.2 120.059 40.248C120.059 38.136 119.531 36.456 118.475 35.208C117.467 33.96 116.171 33.336 114.587 33.336C113.003 33.336 111.659 34.056 110.555 35.496C109.451 36.888 108.803 38.808 108.611 41.256C108.515 44.904 108.467 47.496 108.467 49.032C108.467 52.296 108.563 55.872 108.755 59.76H91.5469C91.9309 52.848 92.1229 46.32 92.1229 40.176C92.1229 34.032 91.9309 27.456 91.5469 20.448C94.7149 20.592 97.1389 20.664 98.8189 20.664C100.595 20.664 103.019 20.592 106.091 20.448L108.179 31.032C109.283 27.192 111.011 24.36 113.363 22.536C115.715 20.664 118.451 19.728 121.571 19.728C124.451 19.728 126.947 20.376 129.059 21.672C131.171 22.92 132.755 24.624 133.811 26.784C134.915 28.944 135.467 31.368 135.467 34.056V44.424C135.467 50.808 135.587 55.92 135.827 59.76H119.627Z" fill="white"/>
<path d="M175.593 20.448H189.417C189.177 28.32 189.057 39.504 189.057 54C189.057 59.712 187.905 64.392 185.601 68.04C183.345 71.688 180.345 74.328 176.601 75.96C172.857 77.64 168.681 78.48 164.073 78.48C159.513 78.48 155.433 77.808 151.833 76.464C148.233 75.168 145.497 73.416 143.625 71.208L146.865 60.192C149.457 61.68 151.905 62.736 154.209 63.36C156.513 64.032 158.913 64.368 161.409 64.368C169.569 64.368 173.649 60.912 173.649 54C173.649 52.992 173.673 52.272 173.721 51.84C173.721 51.552 173.721 51.168 173.721 50.688C173.769 50.208 173.769 49.584 173.721 48.816C171.273 55.632 166.089 59.04 158.169 59.04C154.953 59.04 152.073 58.176 149.529 56.448C147.033 54.72 145.089 52.392 143.697 49.464C142.305 46.488 141.609 43.224 141.609 39.672C141.609 36.024 142.305 32.688 143.697 29.664C145.089 26.592 147.033 24.168 149.529 22.392C152.025 20.616 154.833 19.728 157.953 19.728C166.065 19.728 171.345 22.584 173.793 28.296L175.593 20.448ZM165.657 47.52C166.761 47.52 167.913 47.28 169.113 46.8C170.313 46.272 171.345 45.456 172.209 44.352C173.073 43.2 173.505 41.784 173.505 40.104C173.505 37.128 172.833 35.016 171.489 33.768C170.145 32.472 168.153 31.824 165.513 31.824C163.209 31.824 161.385 32.592 160.041 34.128C158.697 35.664 158.025 37.656 158.025 40.104C158.025 42.312 158.745 44.112 160.185 45.504C161.673 46.848 163.497 47.52 165.657 47.52Z" fill="white"/>
<path d="M212.107 30.96C212.059 33.84 212.035 38.256 212.035 44.208C212.035 51.36 212.084 56.544 212.18 59.76H195.188L195.259 51.624C195.355 42.696 195.403 35.808 195.403 30.96C195.403 26.352 195.355 19.824 195.259 11.376L195.188 3.6H212.18C212.084 10.416 212.035 15.984 212.035 20.304C212.035 25.104 212.059 28.656 212.107 30.96Z" fill="white"/>
<path d="M256.057 41.76H232.585C232.969 43.872 233.905 45.6 235.393 46.944C236.929 48.24 239.089 48.888 241.873 48.888C243.889 48.888 245.785 48.504 247.561 47.736C249.337 46.92 250.753 45.792 251.809 44.352C255.025 45.936 259.297 47.64 264.625 49.464C263.137 52.824 260.425 55.512 256.489 57.528C252.601 59.496 247.513 60.48 241.225 60.48C233.065 60.48 227.017 58.608 223.081 54.864C219.193 51.072 217.249 46.104 217.249 39.96C217.249 33.96 219.193 29.088 223.081 25.344C226.969 21.6 233.017 19.728 241.225 19.728C246.121 19.728 250.369 20.544 253.969 22.176C257.569 23.808 260.329 26.088 262.249 29.016C264.169 31.896 265.129 35.208 265.129 38.952C265.129 40.2 265.081 41.136 264.985 41.76H256.057ZM242.233 30.6C239.833 30.6 237.865 31.056 236.329 31.968C234.793 32.88 233.713 34.128 233.089 35.712H250.081C249.505 34.176 248.569 32.952 247.273 32.04C245.977 31.08 244.297 30.6 242.233 30.6Z" fill="white"/>
<path d="M301.605 19.728C304.725 19.728 307.533 20.616 310.029 22.392C312.525 24.168 314.469 26.592 315.861 29.664C317.253 32.688 317.949 36.024 317.949 39.672C317.949 43.272 317.253 46.68 315.861 49.896C314.469 53.064 312.501 55.632 309.957 57.6C307.461 59.52 304.605 60.48 301.389 60.48C297.645 60.48 294.429 59.712 291.741 58.176C289.101 56.592 287.133 54.168 285.837 50.904C285.837 53.64 285.933 58.032 286.125 64.08C286.317 69.936 286.413 74.064 286.413 76.464H270.141C270.429 67.536 270.573 58.2 270.573 48.456C270.573 38.712 270.429 29.376 270.141 20.448H283.965L286.053 29.448C287.397 26.088 289.413 23.64 292.101 22.104C294.789 20.52 297.957 19.728 301.605 19.728ZM293.901 47.52C296.061 47.52 297.861 46.848 299.301 45.504C300.789 44.112 301.533 42.312 301.533 40.104C301.533 37.656 300.861 35.664 299.517 34.128C298.173 32.592 296.349 31.824 294.045 31.824C291.405 31.824 289.413 32.472 288.069 33.768C286.725 35.016 286.053 37.128 286.053 40.104C286.053 41.784 286.485 43.2 287.349 44.352C288.213 45.456 289.245 46.272 290.445 46.8C291.645 47.28 292.797 47.52 293.901 47.52Z" fill="white"/>
<path d="M369.168 47.808C369.168 49.44 369.36 50.592 369.744 51.264C370.128 51.936 370.896 52.416 372.048 52.704L371.76 59.472C370.224 59.712 368.88 59.88 367.728 59.976C366.624 60.072 365.136 60.12 363.264 60.12C359.136 60.12 356.4 59.208 355.056 57.384C353.712 55.512 353.04 53.136 353.04 50.256V48.456C351.648 52.392 349.608 55.32 346.92 57.24C344.28 59.16 340.896 60.12 336.768 60.12C331.968 60.12 328.344 59.16 325.896 57.24C323.496 55.32 322.296 52.464 322.296 48.672C322.296 45.552 323.328 43.104 325.392 41.328C327.456 39.552 330.648 38.328 334.968 37.656C331.32 35.064 327.672 32.808 324.024 30.888C326.904 27.24 330.192 24.48 333.888 22.608C337.584 20.688 342.072 19.728 347.352 19.728C354.744 19.728 360.216 21.336 363.768 24.552C367.368 27.72 369.168 32.616 369.168 39.24V47.808ZM348.864 32.4C346.416 32.4 344.256 32.808 342.384 33.624C340.512 34.44 338.832 35.664 337.344 37.296C340.224 36.96 343.824 36.792 348.144 36.792C349.92 36.792 351.168 36.576 351.888 36.144C352.608 35.712 352.968 35.16 352.968 34.488C352.968 33.912 352.608 33.432 351.888 33.048C351.168 32.616 350.16 32.4 348.864 32.4ZM341.304 48.384C343.992 48.384 346.416 47.88 348.576 46.872C350.736 45.816 352.224 44.448 353.04 42.768V40.896C351.888 41.472 350.616 41.928 349.224 42.264C347.832 42.552 346.152 42.84 344.184 43.128L341.592 43.56C338.904 44.088 337.56 45 337.56 46.296C337.56 47.688 338.808 48.384 341.304 48.384Z" fill="white"/>
<path d="M410.367 20.448H424.191C423.951 28.32 423.831 39.504 423.831 54C423.831 59.712 422.679 64.392 420.375 68.04C418.119 71.688 415.119 74.328 411.375 75.96C407.631 77.64 403.455 78.48 398.847 78.48C394.287 78.48 390.207 77.808 386.607 76.464C383.007 75.168 380.271 73.416 378.399 71.208L381.639 60.192C384.231 61.68 386.679 62.736 388.983 63.36C391.287 64.032 393.687 64.368 396.183 64.368C404.343 64.368 408.423 60.912 408.423 54C408.423 52.992 408.447 52.272 408.495 51.84C408.495 51.552 408.495 51.168 408.495 50.688C408.543 50.208 408.543 49.584 408.495 48.816C406.047 55.632 400.863 59.04 392.943 59.04C389.727 59.04 386.847 58.176 384.303 56.448C381.807 54.72 379.863 52.392 378.471 49.464C377.079 46.488 376.383 43.224 376.383 39.672C376.383 36.024 377.079 32.688 378.471 29.664C379.863 26.592 381.807 24.168 384.303 22.392C386.799 20.616 389.607 19.728 392.727 19.728C400.839 19.728 406.119 22.584 408.567 28.296L410.367 20.448ZM400.431 47.52C401.535 47.52 402.687 47.28 403.887 46.8C405.087 46.272 406.119 45.456 406.983 44.352C407.847 43.2 408.279 41.784 408.279 40.104C408.279 37.128 407.607 35.016 406.263 33.768C404.919 32.472 402.927 31.824 400.287 31.824C397.983 31.824 396.159 32.592 394.815 34.128C393.471 35.664 392.799 37.656 392.799 40.104C392.799 42.312 393.519 44.112 394.959 45.504C396.447 46.848 398.271 47.52 400.431 47.52Z" fill="white"/>
<path d="M468.049 41.76H444.577C444.961 43.872 445.897 45.6 447.385 46.944C448.921 48.24 451.081 48.888 453.865 48.888C455.881 48.888 457.777 48.504 459.553 47.736C461.329 46.92 462.745 45.792 463.801 44.352C467.017 45.936 471.289 47.64 476.617 49.464C475.129 52.824 472.417 55.512 468.481 57.528C464.593 59.496 459.505 60.48 453.217 60.48C445.057 60.48 439.009 58.608 435.073 54.864C431.185 51.072 429.241 46.104 429.241 39.96C429.241 33.96 431.185 29.088 435.073 25.344C438.961 21.6 445.009 19.728 453.217 19.728C458.113 19.728 462.361 20.544 465.961 22.176C469.561 23.808 472.321 26.088 474.241 29.016C476.161 31.896 477.121 35.208 477.121 38.952C477.121 40.2 477.073 41.136 476.977 41.76H468.049ZM454.225 30.6C451.825 30.6 449.857 31.056 448.321 31.968C446.785 32.88 445.705 34.128 445.081 35.712H462.073C461.497 34.176 460.561 32.952 459.265 32.04C457.969 31.08 456.289 30.6 454.225 30.6Z" fill="white"/>
</svg>
